#!OML:ASF F:\VICON\USERDATA\Patient Classification 1\PLAYGROUND\JustinFriday\JustinFriday.ASF
:FULLY-SPECIFIED
:DEGREES
4030
root 10.2798 17.7899 51.1551 -719.545 -112.079 7.90789
lowerback 3.78265 1.24585 4.67614
upperback 2.35195 1.74905 -0.0861666
thorax 0.445769 0.903989 -2.76538
lowerneck -1.09445 -5.41411 -12.1572
upperneck 14.8186 -7.75645 5.55293
head 5.33567 -4.26204 3.29377
rclavicle 1.71576e-014 -2.21645e-014
rhumerus -31.0897 4.50949 -87.1483
rradius 41.0962
rwrist -19.5333
rhand -18.7358 -27.7639
rfingers 7.12502
rthumb 7.56013 -417.609
lclavicle 1.71576e-014 -2.21645e-014
lhumerus -42.5182 22.8704 64.9402
lradius 26.1293
lwrist 1.42705
lhand -14.7448 -2.5074
lfingers 7.12502
lthumb 11.4108 27.1621
rfemur -37.26 -8.86935 40.3679
rtibia 17.7077
rfoot -8.95073 -2.03729
rtoes -3.50929
lfemur -0.0872658 -14.6781 -19.6308
ltibia 18.3638
lfoot 23.5885 -45.5416
ltoes 44.3582
4031
root 10.2013 17.7904 51.121 -719.683 -112.003 8.27866
lowerback 4.2209 1.37934 4.74452
upperback 2.2473 1.9536 0.162776
thorax 0.1037 0.994215 -2.56767
lowerneck -1.02476 -5.70222 -11.8945
upperneck 14.5454 -8.10834 5.24254
head 5.2497 -4.4278 3.13338
rclavicle -5.46968e-014 2.98177e-015
rhumerus -31.1666 4.44416 -86.8655
rradius 41.5796
rwrist -19.5721
rhand -18.7864 -26.0073
rfingers 7.12502
rthumb 7.51137 -415.854
lclavicle -5.46968e-014 2.98177e-015
lhumerus -43.0046 27.6741 62.3926
lradius 24.7836
lwrist -3.91891
lhand -13.6054 -3.73309
lfingers 7.12502
lthumb 12.5096 25.8725
rfemur -36.9309 -8.13516 39.9728
rtibia 16.9
rfoot -9.52373 -4.36162
rtoes -1.50905
lfemur 0.132198 -14.6432 -19.5362
ltibia 18.2569
lfoot 24 -44.7345
ltoes 45.0357
4032
root 10.1189 17.7804 51.081 -720.091 -112.077 9.0476
lowerback 4.49509 1.48885 5.27964
upperback 2.13542 2.13844 0.192652
thorax -0.129439 1.08255 -2.85339
lowerneck -1.14061 -6.0686 -11.6616
upperneck 14.441 -8.59515 5.26176
head 5.27039 -4.6431 3.06556
rclavicle -1.04735e-014 5.1684e-015
rhumerus -31.0164 4.39135 -87.0607
rradius 41.5832
rwrist -19.4235
rhand -18.3529 -26.0598
rfingers 7.12502
rthumb 7.92974 -415.891
lclavicle -1.04735e-014 5.1684e-015
lhumerus -42.6055 27.1703 62.8333
lradius 24.5399
lwrist -3.25466
lhand -13.3967 -3.72009
lfingers 7.12502
lthumb 12.7108 25.8731
rfemur -36.9193 -7.25336 39.7616
rtibia 16.7318
rfoot -10.1667 -6.34822
rtoes -1.90218
lfemur 0.486311 -14.4769 -19.2664
ltibia 17.7684
lfoot 23.5021 -44.4945
ltoes 44.6864
4033
root 10.0359 17.7594 51.0338 -721.058 -112.282 10.6443
lowerback 4.57418 1.56411 6.10319
upperback 1.95196 2.28448 0.304826
thorax -0.319454 1.15093 -3.21002
lowerneck -1.50063 -6.51999 -11.6491
upperneck 14.5183 -9.18831 5.44368
head 5.4151 -4.91113 3.0638
rclavicle 6.04802e-014 1.20762e-014
rhumerus -30.7662 4.75797 -87.3707
rradius 41.633
rwrist -19.7288
rhand -17.4617 -27.854
rfingers 7.12502
rthumb 8.78979 -417.651
lclavicle 6.04802e-014 1.20762e-014
lhumerus -42.5646 27.4295 62.7525
lradius 24.4054
lwrist -3.45642
lhand -13.2142 -3.61845
lfingers 7.12502
lthumb 12.8867 25.9637
rfemur -37.657 -6.02342 39.8081
rtibia 17.9439
rfoot -10.9052 -8.39679
rtoes -1.18167
lfemur 1.13665 -13.8063 -18.4851
ltibia 16.2562
lfoot 24.3446 -43.9414
ltoes 44.7965
4034
root 9.93934 17.7755 50.9904 -721.304 -112.49 11.2046
lowerback 4.80966 1.67176 6.38983
upperback 1.85575 2.45928 0.537952
thorax -0.530128 1.22798 -3.14688
lowerneck -1.40494 -6.46674 -11.7727
upperneck 14.3869 -9.14755 5.69503
head 5.37063 -4.88281 3.17008
rclavicle 3.63527e-014 -9.64106e-015
rhumerus -31.2929 4.2937 -87.0583
rradius 42.8204
rwrist -19.4266
rhand -16.8856 -28.5028
rfingers 7.12502
rthumb 9.34569 -418.276
lclavicle 3.63527e-014 -9.64106e-015
lhumerus -42.8047 28.2566 62.7801
lradius 24.4776
lwrist -4.35494
lhand -12.9209 -3.5338
lfingers 7.12502
lthumb 13.1694 26.0303
rfemur -38.0177 -5.258 39.5427
rtibia 19.3567
rfoot -11.5815 -10.0415
rtoes 0.128798
lfemur 2.19209 -13.719 -18.3428
ltibia 14.5099
lfoot 24.7808 -42.8088
ltoes 45.4062
4035
root 9.84591 17.8625 50.9366 -721.301 -112.691 11.417
lowerback 5.19434 1.91938 6.07124
upperback 1.72662 2.80675 1.01126
thorax -0.88361 1.38196 -2.5152
lowerneck -1.25931 -6.49982 -12.1376
upperneck 14.2892 -9.22654 5.98874
head 5.35352 -4.92488 3.3197
rclavicle 8.49804e-015 -2.38542e-015
rhumerus -30.9578 5.38485 -86.6157
rradius 42.5408
rwrist -20.8315
rhand -17.206 -27.4302
rfingers 7.12502
rthumb 9.03653 -417.217
lclavicle 8.49804e-015 -2.38542e-015
lhumerus -42.488 15.1436 71.7378
lradius 29.4629
lwrist 10.3141
lhand -14.7929 0.134751
lfingers 7.12502
lthumb 11.3645 29.8068
rfemur -38.66 -5.34868 39.7162
rtibia 22.2913
rfoot -13.2613 -10.591
rtoes 0.836916
lfemur 4.3556 -13.6751 -18.3209
ltibia 10.599
lfoot 25.7256 -41.1401
ltoes 45.6882
4036
root 9.74444 17.8527 50.8869 -721.167 -112.92 11.4519
lowerback 5.40997 2.0828 6.26177
upperback 1.73317 3.04704 0.990913
thorax -0.964307 1.49877 -2.66294
lowerneck -1.17589 -6.67159 -11.8563
upperneck 13.8366 -9.48285 6.23719
head 5.21919 -5.01109 3.34232
rclavicle -1.32689e-014 1.33186e-014
rhumerus -31.1319 4.60961 -86.623
rradius 43.3119
rwrist -20.5163
rhand -17.3059 -26.5905
rfingers 7.12502
rthumb 8.94017 -416.381
lclavicle -1.32689e-014 1.33186e-014
lhumerus -41.9872 26.5723 65.1416
lradius 24.0993
lwrist -2.60446
lhand -12.9535 -3.65161
lfingers 7.12502
lthumb 13.138 25.9145
rfemur -39.4095 -3.63956 38.5387
rtibia 24.9273
rfoot -14.4626 -12.5358
rtoes 3.7675
lfemur 8.53438 -13.4956 -18.4668
ltibia 3.04429
lfoot 27.5834 -38.7887
ltoes 45.1261
4037
root 9.66748 17.8014 50.9233 -705.739 -111.511 -6.2918
lowerback 7.48348 1.44773 0.453888
upperback 1.89832 1.88523 -0.600534
thorax -2.19751 0.912388 -1.04596
lowerneck -1.20105 -6.94467 -11.8265
upperneck 13.3967 -9.79466 6.07439
head 5.1087 -5.15689 3.2667
rclavicle -2.50469e-014 5.1684e-015
rhumerus -30.9765 5.43245 -86.5891
rradius 43.3223
rwrist -21.1263
rhand -17.881 -26.5849
rfingers 7.12502
rthumb 8.38521 -416.398
lclavicle -2.50469e-014 5.1684e-015
lhumerus -42.0289 25.4196 66.4933
lradius 24.6628
lwrist -1.06235
lhand -12.6507 -3.35696
lfingers 7.12502
lthumb 13.4298 26.1901
rfemur -39.3772 -1.21327 28.9742
rtibia 26.4744
rfoot -14.609 -19.1004
rtoes 4.12899
lfemur 11.1027 -15.5917 -25.8645
ltibia -5.08889e-014
lfoot 29.1783 -37.0688
ltoes 44.9095
4038
root 9.55294 17.7694 50.87 -705.278 -111.885 -6.55936
lowerback 7.65633 1.56107 0.00854772
upperback 1.78139 2.01017 -0.369043
thorax -2.4355 0.976544 -0.576989
lowerneck -1.37847 -7.23597 -11.9191
upperneck 13.3076 -10.1573 6.09271
head 5.15125 -5.32892 3.25297
rclavicle -1.98785e-016 -3.77691e-014
rhumerus -31.0116 5.17621 -86.413
rradius 43.8055
rwrist -20.7615
rhand -17.8151 -27.683
rfingers 7.12502
rthumb 8.44879 -417.494
lclavicle -1.98785e-016 -3.77691e-014
lhumerus -42.327 26.4159 66.3164
lradius 24.2663
lwrist -2.22998
lhand -12.1742 -3.90103
lfingers 7.12502
lthumb 13.8892 25.6152
rfemur -39.2037 -0.590402 28.4156
rtibia 26.493
rfoot -14.8895 -20.6097
rtoes 6.434
lfemur 11.3742 -15.3254 -26.1639
ltibia -2.8625e-014
lfoot 29.3753 -36.6537
ltoes 45.486
4039
root 9.43618 17.629 50.8208 -704.803 -112.398 -6.8041
lowerback 7.7869 1.84175 0.25951
upperback 1.66151 2.39297 -0.739255
thorax -2.60187 1.16457 -1.14265
lowerneck -1.3809 -7.55583 -11.2765
upperneck 13.175 -10.6578 6.40353
head 5.13585 -5.52268 3.21438
rclavicle -1.55052e-014 3.1408e-014
rhumerus -30.6244 5.22383 -87.0315
rradius 43.2883
rwrist -21.5141
rhand -16.1096 -29.3897
rfingers 7.12502
rthumb 10.0944 -419.128
lclavicle -1.55052e-014 3.1408e-014
lhumerus -41.9008 25.2264 66.7484
lradius 24.2539
lwrist -1.89919
lhand -11.952 -3.89998
lfingers 7.12502
lthumb 14.1033 25.6014
rfemur -39.4209 1.98176 26.6229
rtibia 26.0841
rfoot -17.6007 -22.0873
rtoes 18.656
lfemur 11.702 -14.9179 -26.561
ltibia -4.13472e-014
lfoot 29.1888 -36.4487
ltoes 45.7438
